<svg width="162" height="137" viewBox="0 0 162 137" fill="none" xmlns="http://www.w3.org/2000/svg">
<rect width="35.41" height="35.2572" transform="matrix(0.876983 -0.480521 -0.876983 -0.480521 61.8544 85.1874)" fill="#FE9879"/>
<rect width="35.41" height="34.0305" transform="matrix(0.876983 -0.480521 -1.1299e-07 -1 61.8714 85.1964)" fill="#D76B4A"/>
<rect width="35.41" height="33.8837" transform="matrix(0.876983 -0.480521 2.32136e-08 1 61.3405 17.9875)" fill="#3ABCD4"/>
<rect width="35.41" height="35.41" transform="matrix(0.876983 -0.480521 0.876983 0.480521 61.3405 17.9694)" fill="#4DA1B0"/>
<path d="M1.27286 131V114.182H5.33779V127.699H12.3344V131H1.27286ZM32.4326 122.591C32.4326 124.441 32.0767 126.01 31.365 127.296C30.6533 128.583 29.6898 129.56 28.4744 130.228C27.2645 130.896 25.9068 131.23 24.4013 131.23C22.8903 131.23 21.5298 130.893 20.3199 130.22C19.11 129.546 18.1492 128.569 17.4375 127.288C16.7313 126.002 16.3782 124.436 16.3782 122.591C16.3782 120.74 16.7313 119.172 17.4375 117.885C18.1492 116.599 19.11 115.622 20.3199 114.954C21.5298 114.286 22.8903 113.952 24.4013 113.952C25.9068 113.952 27.2645 114.286 28.4744 114.954C29.6898 115.622 30.6533 116.599 31.365 117.885C32.0767 119.172 32.4326 120.74 32.4326 122.591ZM28.2773 122.591C28.2773 121.496 28.1213 120.571 27.8092 119.815C27.5027 119.06 27.0592 118.488 26.4789 118.099C25.9041 117.71 25.2115 117.516 24.4013 117.516C23.5965 117.516 22.9039 117.71 22.3236 118.099C21.7433 118.488 21.2971 119.06 20.9851 119.815C20.6785 120.571 20.5252 121.496 20.5252 122.591C20.5252 123.686 20.6785 124.611 20.9851 125.367C21.2971 126.122 21.7433 126.694 22.3236 127.083C22.9039 127.472 23.5965 127.666 24.4013 127.666C25.2115 127.666 25.9041 127.472 26.4789 127.083C27.0592 126.694 27.5027 126.122 27.8092 125.367C28.1213 124.611 28.2773 123.686 28.2773 122.591ZM48.6178 119.676C48.5247 119.331 48.3878 119.027 48.2072 118.764C48.0265 118.496 47.8048 118.269 47.542 118.083C47.2792 117.896 46.9781 117.757 46.6387 117.664C46.2992 117.565 45.927 117.516 45.5218 117.516C44.7061 117.516 43.9999 117.713 43.4031 118.107C42.8119 118.501 42.3547 119.076 42.0317 119.832C41.7087 120.582 41.5472 121.493 41.5472 122.566C41.5472 123.645 41.7033 124.565 42.0153 125.326C42.3274 126.086 42.779 126.667 43.3703 127.066C43.9616 127.466 44.6787 127.666 45.5218 127.666C46.2664 127.666 46.896 127.545 47.4106 127.305C47.9307 127.058 48.3249 126.711 48.5931 126.262C48.8614 125.813 48.9955 125.284 48.9955 124.677L49.751 124.767H45.6614V121.803H52.9126V124.028C52.9126 125.534 52.5924 126.823 51.9518 127.896C51.3168 128.969 50.4408 129.793 49.324 130.368C48.2126 130.943 46.9343 131.23 45.489 131.23C43.8849 131.23 42.4752 130.882 41.2598 130.187C40.0444 129.492 39.0973 128.501 38.4185 127.214C37.7396 125.922 37.4002 124.389 37.4002 122.616C37.4002 121.236 37.6055 120.012 38.0161 118.945C38.4267 117.872 38.9988 116.963 39.7324 116.218C40.4715 115.474 41.3255 114.91 42.2945 114.527C43.269 114.144 44.3174 113.952 45.4397 113.952C46.4142 113.952 47.3203 114.092 48.1579 114.371C49.001 114.65 49.7455 115.044 50.3915 115.553C51.043 116.062 51.5713 116.667 51.9765 117.368C52.3816 118.069 52.6334 118.838 52.732 119.676H48.6178ZM62.1484 114.182V131H58.0835V114.182H62.1484ZM81.7888 114.182V131H78.3397L71.647 121.293H71.5402V131H67.4753V114.182H70.9736L77.5924 123.872H77.732V114.182H81.7888Z" fill="white"/>
<path d="M87.1197 131V114.182H94.0671C95.3263 114.182 96.413 114.428 97.3272 114.921C98.247 115.408 98.956 116.09 99.4541 116.966C99.9523 117.836 100.201 118.849 100.201 120.004C100.201 121.165 99.9469 122.18 99.4377 123.051C98.9341 123.916 98.2141 124.586 97.278 125.063C96.3418 125.539 95.2304 125.777 93.9439 125.777H89.6572V122.575H93.1884C93.8016 122.575 94.3134 122.468 94.724 122.254C95.1401 122.041 95.4549 121.742 95.6684 121.359C95.8819 120.97 95.9887 120.519 95.9887 120.004C95.9887 119.484 95.8819 119.035 95.6684 118.657C95.4549 118.274 95.1401 117.979 94.724 117.77C94.308 117.562 93.7961 117.458 93.1884 117.458H91.1847V131H87.1197ZM106.586 131H102.217L107.891 114.182H113.303L118.977 131H114.609L110.659 118.419H110.527L106.586 131ZM106.003 124.381H115.134V127.469H106.003V124.381ZM133.81 119.676C133.717 119.331 133.58 119.027 133.399 118.764C133.218 118.496 132.997 118.269 132.734 118.083C132.471 117.896 132.17 117.757 131.831 117.664C131.491 117.565 131.119 117.516 130.714 117.516C129.898 117.516 129.192 117.713 128.595 118.107C128.004 118.501 127.547 119.076 127.224 119.832C126.901 120.582 126.739 121.493 126.739 122.566C126.739 123.645 126.895 124.565 127.207 125.326C127.519 126.086 127.971 126.667 128.562 127.066C129.154 127.466 129.871 127.666 130.714 127.666C131.458 127.666 132.088 127.545 132.603 127.305C133.123 127.058 133.517 126.711 133.785 126.262C134.053 125.813 134.187 125.284 134.187 124.677L134.943 124.767H130.853V121.803H138.105V124.028C138.105 125.534 137.784 126.823 137.144 127.896C136.509 128.969 135.633 129.793 134.516 130.368C133.405 130.943 132.126 131.23 130.681 131.23C129.077 131.23 127.667 130.882 126.452 130.187C125.236 129.492 124.289 128.501 123.61 127.214C122.932 125.922 122.592 124.389 122.592 122.616C122.592 121.236 122.797 120.012 123.208 118.945C123.619 117.872 124.191 116.963 124.924 116.218C125.663 115.474 126.517 114.91 127.487 114.527C128.461 114.144 129.509 113.952 130.632 113.952C131.606 113.952 132.512 114.092 133.35 114.371C134.193 114.65 134.938 115.044 135.584 115.553C136.235 116.062 136.763 116.667 137.168 117.368C137.574 118.069 137.825 118.838 137.924 119.676H133.81ZM143.275 131V114.182H155.002V117.483H147.34V120.932H154.403V124.242H147.34V127.699H155.002V131H143.275Z" fill="#FE9879"/>
</svg>
