<svg width="23" height="23" viewBox="0 0 23 23" fill="none" xmlns="http://www.w3.org/2000/svg">
<g clip-path="url(#clip0_2_48)">
<path d="M9.67451 22.6045C4.34451 21.6508 0.304932 17.0501 0.304932 11.4957C0.304932 5.32413 5.3544 0.274658 11.526 0.274658C17.6976 0.274658 22.747 5.32413 22.747 11.4957C22.747 17.0501 18.7075 21.6508 13.3775 22.6045L12.7603 22.0996H10.2917L9.67451 22.6045Z" fill="url(#paint0_linear_2_48)"/>
<path d="M15.9022 14.6376L16.4071 11.4957H13.4336V9.30761C13.4336 8.40993 13.7702 7.73667 15.1167 7.73667H16.5755V4.8753C15.79 4.76308 14.8923 4.65088 14.1068 4.65088C11.526 4.65088 9.73062 6.22183 9.73062 9.02709V11.4957H6.92535V14.6376H9.73062V22.5485C10.3478 22.6607 10.9649 22.7168 11.5821 22.7168C12.1992 22.7168 12.8164 22.6606 13.4336 22.5485V14.6376H15.9022Z" fill="white"/>
</g>
<defs>
<linearGradient id="paint0_linear_2_48" x1="11.5267" y1="21.9359" x2="11.5267" y2="0.270315" gradientUnits="userSpaceOnUse">
<stop stop-color="#0062E0"/>
<stop offset="1" stop-color="#19AFFF"/>
</linearGradient>
<clipPath id="clip0_2_48">
<rect width="22.9167" height="22.9167" fill="black"/>
</clipPath>
</defs>
</svg>
