<svg width="102" height="24" viewBox="0 0 102 24" fill="black" xmlns="http://www.w3.org/2000/svg">
<path d="M34.7171 17H35.95V12.446H40.3648V11.3523H35.95V7.91193H40.8222V6.81818H34.7171V17ZM45.4419 17.179C46.7743 17.179 47.4703 16.4631 47.709 15.9659H47.7686V17H48.9419V11.9688C48.9419 9.54261 47.0925 9.2642 46.1181 9.2642C44.9646 9.2642 43.6521 9.66193 43.0556 11.054L44.1692 11.4517C44.4277 10.8949 45.0392 10.2983 46.1578 10.2983C47.2367 10.2983 47.7686 10.87 47.7686 11.8494V11.8892C47.7686 12.456 47.1919 12.4062 45.7999 12.5852C44.383 12.7692 42.8368 13.0824 42.8368 14.8324C42.8368 16.3239 43.9902 17.179 45.4419 17.179ZM45.6209 16.125C44.6862 16.125 44.0101 15.7074 44.0101 14.892C44.0101 13.9972 44.8254 13.7188 45.7402 13.5994C46.2374 13.5398 47.5698 13.4006 47.7686 13.1619V14.2358C47.7686 15.1903 47.0129 16.125 45.6209 16.125ZM54.6057 17.1591C56.296 17.1591 57.4097 16.125 57.6085 14.7727H56.4353C56.2165 15.608 55.5205 16.1051 54.6057 16.1051C53.2137 16.1051 52.3188 14.9517 52.3188 13.1818C52.3188 11.4517 53.2335 10.3182 54.6057 10.3182C55.6398 10.3182 56.2563 10.9545 56.4353 11.6506H57.6085C57.4097 10.2188 56.1966 9.2642 54.5858 9.2642C52.5176 9.2642 51.1455 10.8949 51.1455 13.2216C51.1455 15.5085 52.458 17.1591 54.6057 17.1591ZM62.9455 17.1591C64.4966 17.1591 65.6301 16.3835 65.9881 15.2301L64.8545 14.9119C64.5562 15.7074 63.8652 16.1051 62.9455 16.1051C61.5683 16.1051 60.6187 15.2152 60.5641 13.5795H66.1074V13.0824C66.1074 10.2386 64.417 9.2642 62.8261 9.2642C60.758 9.2642 59.3858 10.8949 59.3858 13.2415C59.3858 15.5881 60.7381 17.1591 62.9455 17.1591ZM60.5641 12.5653C60.6436 11.3771 61.4838 10.3182 62.8261 10.3182C64.0989 10.3182 64.9142 11.2727 64.9142 12.5653H60.5641ZM68.4713 17H69.6048V15.8267H69.744C70.0025 16.2443 70.4997 17.1591 71.9713 17.1591C73.8804 17.1591 75.2128 15.6278 75.2128 13.2017C75.2128 10.7955 73.8804 9.2642 71.9514 9.2642C70.4599 9.2642 70.0025 10.179 69.744 10.5767H69.6446V6.81818H68.4713V17ZM69.6247 13.1818C69.6247 11.4716 70.3804 10.3182 71.8122 10.3182C73.3037 10.3182 74.0395 11.571 74.0395 13.1818C74.0395 14.8125 73.2838 16.1051 71.8122 16.1051C70.4003 16.1051 69.6247 14.9119 69.6247 13.1818ZM80.5298 17.1591C82.5979 17.1591 83.99 15.5881 83.99 13.2216C83.99 10.8352 82.5979 9.2642 80.5298 9.2642C78.4616 9.2642 77.0695 10.8352 77.0695 13.2216C77.0695 15.5881 78.4616 17.1591 80.5298 17.1591ZM80.5298 16.1051C78.9587 16.1051 78.2428 14.7528 78.2428 13.2216C78.2428 11.6903 78.9587 10.3182 80.5298 10.3182C82.1008 10.3182 82.8167 11.6903 82.8167 13.2216C82.8167 14.7528 82.1008 16.1051 80.5298 16.1051ZM89.3033 17.1591C91.3715 17.1591 92.7635 15.5881 92.7635 13.2216C92.7635 10.8352 91.3715 9.2642 89.3033 9.2642C87.2351 9.2642 85.8431 10.8352 85.8431 13.2216C85.8431 15.5881 87.2351 17.1591 89.3033 17.1591ZM89.3033 16.1051C87.7323 16.1051 87.0164 14.7528 87.0164 13.2216C87.0164 11.6903 87.7323 10.3182 89.3033 10.3182C90.8743 10.3182 91.5902 11.6903 91.5902 13.2216C91.5902 14.7528 90.8743 16.1051 89.3033 16.1051ZM94.9745 17H96.1478V14.1413L96.9681 13.3807L99.8268 17H101.318L97.8531 12.625L101.08 9.36364H99.6279L96.287 12.7642H96.1478V6.81818H94.9745V17Z" fill="black"/>
<g clip-path="url(#clip0_246_8)">
<path d="M9.67451 23.6045C4.34451 22.6507 0.304932 18.0501 0.304932 12.4957C0.304932 6.32412 5.3544 1.27464 11.526 1.27464C17.6976 1.27464 22.747 6.32412 22.747 12.4957C22.747 18.0501 18.7075 22.6507 13.3775 23.6045L12.7603 23.0996H10.2917L9.67451 23.6045Z" fill="black"/>
<path d="M15.9022 15.6376L16.4071 12.4957H13.4336V10.3076C13.4336 9.4099 13.7702 8.73664 15.1167 8.73664H16.5755V5.87527C15.79 5.76305 14.8923 5.65085 14.1068 5.65085C11.526 5.65085 9.73062 7.22179 9.73062 10.0271V12.4957H6.92535V15.6376H9.73062V23.5484C10.3478 23.6606 10.9649 23.7167 11.5821 23.7167C12.1992 23.7167 12.8164 23.6606 13.4336 23.5484V15.6376H15.9022Z" fill="black"/>
</g>
<defs>
<linearGradient id="paint0_linear_246_8" x1="11.5267" y1="22.9358" x2="11.5267" y2="1.2703" gradientUnits="userSpaceOnUse">
<stop stop-color="black"/>
<stop offset="1" stop-color="black"/>
</linearGradient>
<clipPath id="clip0_246_8">
<rect width="22.9167" height="22.9167" fill="black" transform="translate(0 1)"/>
</clipPath>
</defs>
</svg>
