<svg width="272" height="311" viewBox="0 0 272 311" fill="none" xmlns="http://www.w3.org/2000/svg">
<path d="M3.5842 100.836C-9.68733 166.884 14.1351 250.523 74.7196 277.275C135.238 304.026 226.28 254.572 251.895 207.243C277.509 159.914 293.169 52.1791 205.378 14.0768C117.587 -23.959 18.581 25.8261 3.5842 100.836Z" fill="#D9DDE0"/>
<path d="M18.4474 156.728H29.2637L71.5335 184.541L68.0829 214.678L45.3223 220.453L18.4474 156.728Z" fill="#181923"/>
<path d="M18.4474 156.728L56.3376 189.387L45.3223 220.453L3.58331 171.265L18.4474 156.728Z" fill="#3C3E4A"/>
<path d="M56.3376 189.387L71.5335 184.541L68.0829 214.678L45.3223 220.453L56.3376 189.387Z" fill="#4B5057"/>
<path d="M87.393 148.165C100.598 142.324 105.708 139.403 108.362 132.433C111.016 125.463 113.405 119.024 113.405 117.431C113.472 115.838 104.845 103.226 104.845 103.226L91.6399 111.324L87.3267 134.026V148.165H87.393Z" fill="#181923"/>
<path d="M128.269 81.1209C108.495 82.9796 89.5828 107.806 89.5828 107.806V125.264L137.294 88.29L128.269 81.1209Z" fill="#181923"/>
<path d="M166.425 64.4595C165.695 66.5837 164.766 68.7078 163.704 70.6329C157.268 81.8511 163.704 88.3564 163.704 88.3564C163.704 88.3564 142.802 85.0374 145.323 65.9199C145.39 65.3888 145.456 64.8578 145.589 64.3267C149.437 43.8153 159.922 40.9609 159.922 40.9609C168.548 42.023 169.876 54.0378 166.425 64.4595Z" fill="#181923"/>
<path opacity="0.24" d="M163.638 70.6329C157.201 81.8511 163.638 88.3564 163.638 88.3564C163.638 88.3564 151.428 86.365 146.783 76.8726C145.39 74.0183 144.726 70.5665 145.191 66.1854C145.191 66.119 145.191 65.9862 145.191 65.8535C146.053 64.3931 147.181 62.8 148.11 60.9413C150.897 55.299 162.045 45.6075 159.922 52.3783C157.798 59.0827 159.059 73.2217 166.292 64.3931C165.695 66.65 164.766 68.7078 163.638 70.6329Z" fill="#2D241B"/>
<path opacity="0.37" d="M146.783 76.939C145.39 74.0846 144.726 70.6329 145.191 66.2518C149.637 61.0741 158.329 51.2498 158.462 53.5068C158.661 56.4939 155.94 70.832 146.783 76.939Z" fill="#2D241B"/>
<path d="M150.101 35.1858C158.528 33.4599 165.695 41.3592 163.107 49.6567C160.519 57.9542 148.177 58.6844 148.177 58.6844L150.101 35.1858Z" fill="#2D241B"/>
<path d="M158.462 48.3955C158.329 53.7723 156.471 58.8836 153.618 62.1362C150.167 66.119 145.589 69.438 141.806 71.8277C137.758 74.3502 134.64 75.8105 134.64 75.8105L110.751 39.1023C115.396 24.9633 129.53 19.3873 145.522 26.9547C155.144 31.4021 158.728 40.2971 158.462 48.3955Z" fill="#181923"/>
<path opacity="0.24" d="M158.462 48.3955C158.329 53.7723 156.471 58.8836 153.618 62.1362C150.167 66.119 145.589 69.438 141.806 71.8277C141.408 71.8941 141.209 71.9605 141.209 71.9605L139.617 55.6309L140.479 42.9523L147.845 32.8625C155.41 42.0894 155.808 50.2541 158.462 48.3955Z" fill="#2D241B"/>
<path d="M225.483 95.9901C229.863 92.4056 226.412 86.896 228.469 84.0417C230.526 81.1209 234.707 78.5321 236.499 75.8105C238.357 73.0889 239.286 79.5278 236.499 82.7804C236.499 82.7804 245.457 78.3994 249.837 78.864C254.216 79.3287 247.315 81.652 247.315 81.652C247.315 81.652 255.809 79.6606 258.33 81.652C260.852 83.6434 252.093 85.5684 252.093 85.5684C252.093 85.5684 256.207 84.3072 257.136 86.365C258.065 88.4892 247.912 90.2814 247.912 90.2814C247.912 90.2814 252.756 91.0116 252.491 92.472C252.292 93.9323 235.238 95.3263 230.858 102.097C226.611 109.001 225.483 95.9901 225.483 95.9901Z" fill="#EB9A7C"/>
<path d="M242.139 87.3607C235.371 87.759 234.773 91.9409 234.773 91.9409" stroke="#E57857" stroke-miterlimit="10" stroke-linecap="round"/>
<path d="M234.707 103.956C234.707 103.956 229.797 112.452 222.895 121.746C215.131 132.167 204.846 143.585 196.352 144.78C188.124 145.908 177.706 139.735 168.018 131.835C163.771 128.384 159.657 124.6 155.94 120.949C151.694 116.767 147.911 112.784 145.058 109.731C137.626 101.699 137.626 91.4099 138.422 85.6348C138.82 82.9132 139.351 81.1209 139.351 81.1209C153.684 83.5106 165.363 85.7676 178.237 100.703C191.11 115.639 195.158 117.497 195.158 117.497L226.744 92.0073L234.707 103.956Z" fill="#181923"/>
<path d="M169.278 123.007C169.013 125.728 168.548 128.716 168.018 131.835C164.766 150.289 157.732 173.788 157.732 173.788H107.168C107.168 173.788 107.101 173.389 106.969 172.527C106.305 168.544 104.182 155.6 103.12 141.992C102.058 128.583 101.992 114.643 105.243 108.27C112.543 94.1315 116.989 85.1038 130.459 83.5106C132.848 83.2451 135.569 84.0417 138.488 85.6348C152.158 93.003 169.61 116.369 169.61 116.369C169.61 118.227 169.544 120.484 169.278 123.007Z" fill="#181923"/>
<path d="M119.311 83.4442C119.178 96.322 138.621 106.81 148.177 82.7804C148.177 82.7804 138.687 75.1467 119.311 83.4442Z" fill="#D9DDE0"/>
<path d="M91.2418 89.153L95.4887 114.51C95.6214 115.373 96.285 115.904 97.0812 115.838L107.168 114.975C107.964 114.908 108.561 114.112 108.561 113.249L107.698 87.2279C107.632 85.9003 106.637 84.9046 105.442 85.0374L93.0334 86.4314C91.9054 86.6305 91.0427 87.8254 91.2418 89.153Z" fill="#DCDCDC"/>
<path d="M89.6492 89.153L93.8961 114.51C94.0288 115.373 94.6924 115.904 95.4886 115.838L105.575 114.975C106.371 114.908 106.969 114.112 106.969 113.249L106.106 87.2279C106.04 85.9003 105.044 84.9046 103.85 85.0374L91.4408 86.4314C90.2464 86.6305 89.3838 87.8254 89.6492 89.153Z" fill="#727881"/>
<path opacity="0.22" d="M91.9717 98.5126C92.2371 98.7781 92.5689 98.9109 92.9671 99.11C96.6167 100.57 105.774 99.11 105.774 99.11L94.2279 106.213H90.8436" fill="#180E3D"/>
<path d="M89.5828 107.806C89.5165 104.354 90.1137 95.8574 91.3745 97.4505C92.6353 99.11 92.5689 103.956 92.5689 103.956C92.5689 103.956 103.186 98.0479 108.229 99.1764C113.339 100.305 109.49 102.894 108.229 104.155C108.229 104.155 110.22 111.789 108.03 116.701C105.84 121.613 92.9671 118.161 92.9671 118.161C92.9671 118.161 89.6492 110.328 89.5828 107.806Z" fill="#EB9A7C"/>
<path d="M89.5828 107.806C79.6292 119.555 68.6138 137.079 72.3298 145.51C75.9795 153.94 87.5257 150.356 90.7109 144.713C95.0242 137.079 97.4794 120.617 97.4794 120.617L89.5828 107.806Z" fill="#181923"/>
<path d="M173.99 260.414C170.34 287.696 166.491 310.066 166.491 310.066H135.37L128.137 252.581L115.462 310L87.4594 306.946L95.555 252.183L106.305 179.43L107.168 173.788H157.732C176.909 189.785 177.706 233.132 173.99 260.414Z" fill="#727881"/>
<path d="M125.814 173.788V208.637L129.066 214.678V173.788" stroke="#EBEBEB" stroke-miterlimit="10"/>
<path d="M127.473 74.0183C127.473 74.0183 128.8 76.1424 128.07 84.5727C127.871 86.8296 129.265 89.3521 131.521 89.6176C135.834 90.0823 138.887 87.8917 139.019 85.4357L139.616 72.2924L127.473 74.0183Z" fill="#EB9A7C"/>
<path d="M139.55 74.0846C137.228 81.1873 128.203 83.4442 128.203 83.4442L127.473 73.9519L140.479 72.8234L139.55 74.0846Z" fill="#CE5F57"/>
<path d="M109.955 43.417C109.955 43.417 110.154 49.9222 109.689 56.3611C109.225 63.1319 111.68 69.7699 116.657 74.4829L116.922 74.6821C120.505 78.0675 125.549 79.2623 130.26 77.9347L134.175 76.8062C136.962 76.0097 139.484 74.2838 141.275 72.0269L145.456 66.7164C145.456 66.7164 148.84 66.982 152.689 62.5345C156.538 58.087 154.613 49.5903 145.92 59.6138L143.797 62.6672L144.792 44.5454C144.792 44.5454 129.862 33.128 121.169 32.9953C112.543 32.7298 110.021 34.522 109.955 43.417Z" fill="#EB9A7C"/>
<path d="M119.046 53.5731C118.913 54.8344 118.382 55.8965 117.851 55.8301C117.32 55.7637 116.922 54.7016 117.055 53.374C117.188 52.1128 117.718 51.0507 118.249 51.1171C118.78 51.1835 119.112 52.3119 119.046 53.5731Z" fill="#473B2D"/>
<path d="M132.45 54.4361C132.317 55.6973 131.786 56.7594 131.255 56.693C130.725 56.6266 130.326 55.5645 130.459 54.2369C130.592 52.9757 131.123 51.9136 131.654 51.98C132.184 52.0464 132.583 53.1085 132.45 54.4361Z" fill="#473B2D"/>
<path d="M120.904 66.9156L132.715 62.8664C132.715 62.8664 134.042 68.044 128.535 69.8363C122.961 71.6286 120.904 66.9156 120.904 66.9156Z" fill="white"/>
<path d="M124.222 55.7637C124.222 55.8301 124.155 55.8964 124.089 56.0292C123.691 56.7594 121.501 60.2112 121.501 60.2112C123.093 60.6095 124.62 59.2818 124.421 57.6887L124.222 55.7637Z" fill="#CE5F57"/>
<path d="M147.314 60.8086C149.437 56.0292 152.822 57.4896 152.357 59.0163C151.826 60.5431 148.907 63.8621 146.385 64.4595L147.314 60.8086Z" fill="#CE5F57"/>
<path d="M110.884 36.8453C108.097 47.8644 130.725 50.1214 134.64 46.8024C138.555 43.4833 130.393 39.0359 130.393 39.0359C130.393 39.0359 141.076 52.3119 148.177 47.9308C155.277 43.5497 150.632 32.5306 142.47 28.9461C134.242 25.2952 114.732 21.5779 110.884 36.8453Z" fill="#181923"/>
<path d="M103.916 89.5512C103.916 90.4142 103.253 91.1444 102.456 91.1444C101.66 91.1444 100.996 90.4142 100.996 89.5512C100.996 88.6883 101.66 87.9581 102.456 87.9581C103.319 87.9581 103.916 88.6883 103.916 89.5512Z" fill="white"/>
<path opacity="0.24" d="M222.895 121.746C215.132 132.167 204.846 143.585 196.352 144.78C188.124 145.908 177.706 139.735 168.018 131.835C164.766 150.289 157.732 173.788 157.732 173.788H108.76C108.163 173.389 107.566 172.991 106.969 172.527C106.305 168.544 104.182 155.6 103.12 141.992C104.646 143.85 106.769 147.634 108.627 155.135C111.945 168.477 129.995 165.291 143.001 159.184C156.073 153.077 153.419 130.176 155.94 120.883C158.396 111.722 162.842 117.232 169.278 122.94C169.411 123.073 169.477 123.14 169.61 123.272C176.246 129.047 178.369 130.242 188.257 134.292C198.078 138.341 204.448 137.81 222.895 121.746Z" fill="#2D241B"/>
<path opacity="0.22" d="M173.99 260.414C170.34 287.696 166.491 310.066 166.491 310.066H135.37L128.137 252.581L115.462 310L87.4594 306.946L95.555 252.183C95.2232 268.711 94.6924 280.992 106.969 280.992C119.245 280.992 126.544 238.907 125.88 230.277C125.217 221.714 117.984 224.17 118.78 220.387C119.576 216.669 146.584 217.997 146.584 222.378C146.584 226.826 132.715 223.706 131.654 230.211C130.592 236.783 131.853 281.191 145.39 280.925C158.86 280.66 174.056 260.281 169.676 230.609C165.231 200.937 148.243 180.293 106.969 179.496L106.371 179.297L107.234 173.655H157.798C176.909 189.785 177.706 233.132 173.99 260.414Z" fill="#180E3D"/>
<path d="M77.1076 51.9136C77.1076 53.7723 76.9085 55.6309 76.5767 57.4232C74.0551 70.1018 62.8407 79.6606 49.3701 79.6606C34.0415 79.6606 21.6326 67.2475 21.6326 51.9136C21.6326 50.2541 21.7653 48.5946 22.0971 46.9351C24.4196 33.991 35.7668 24.1667 49.3701 24.1667C64.6987 24.1667 77.1076 36.5798 77.1076 51.9136Z" fill="#727881"/>
<path d="M22.7607 32.8625C44.7914 33.7918 30.2591 56.3611 41.8717 61.406C53.4843 66.4509 50.6309 75.4786 44.9905 82.183" stroke="#7E7E7E" stroke-width="3" stroke-miterlimit="10"/>
<path d="M49.3701 17.927C36.2313 36.447 65.3623 39.3678 65.3623 56.4275C65.3623 66.5173 52.8207 73.1553 56.4704 84.3072" stroke="#7E7E7E" stroke-width="3" stroke-miterlimit="10"/>
<path d="M67.8839 26.6228C62.8407 40.9609 68.4147 52.0464 78.7665 49.4576" stroke="#7E7E7E" stroke-width="3" stroke-miterlimit="10"/>
<path opacity="0.24" d="M76.5767 57.4232C74.0551 70.1018 62.8407 79.6606 49.3701 79.6606C34.0415 79.6606 21.6326 67.2475 21.6326 51.9136C21.6326 50.2541 21.7653 48.5946 22.0971 46.9351C43.0661 71.0975 65.7604 68.907 76.5767 57.4232Z" fill="#2D241B"/>
<path d="M207.169 73.3545L244.793 20.7813L243.466 87.9581L207.169 73.3545Z" fill="#181923"/>
<path d="M244.793 20.7813L262.312 63.3974L243.466 87.9581L244.793 20.7813Z" fill="#4B5057"/>
<path d="M249.903 180.492L238.091 176.31L205.908 194.963L213.141 228.419L228.469 232.933L249.903 180.492Z" fill="#D6D6D6"/>
<path d="M218.516 196.822L249.903 180.492L257.667 219.125L228.469 232.933L218.516 196.822Z" fill="#727881"/>
<path d="M218.516 196.822L205.908 194.963L213.141 228.419L228.469 232.933L218.516 196.822Z" fill="#7E7E7E"/>
<path d="M38.6865 123.339C41.5451 123.339 43.8624 121.021 43.8624 118.161C43.8624 115.302 41.5451 112.983 38.6865 112.983C35.8279 112.983 33.5106 115.302 33.5106 118.161C33.5106 121.021 35.8279 123.339 38.6865 123.339Z" fill="#4B5057"/>
<path d="M197.414 37.2436C197.414 39.3014 195.755 40.9609 193.698 40.9609C191.641 40.9609 189.982 39.3014 189.982 37.2436C189.982 35.1858 191.641 33.5263 193.698 33.5263C195.755 33.5263 197.414 35.1858 197.414 37.2436Z" fill="#7E7E7E"/>
<path d="M196.551 169.672C196.551 171.265 195.291 172.527 193.698 172.527C192.105 172.527 190.845 171.265 190.845 169.672C190.845 168.079 192.105 166.818 193.698 166.818C195.291 166.818 196.551 168.079 196.551 169.672Z" fill="#7E7E7E"/>
<path d="M196.02 226.958C196.02 228.551 194.76 229.813 193.167 229.813C191.575 229.813 190.314 228.551 190.314 226.958C190.314 225.365 191.575 224.104 193.167 224.104C194.693 224.038 196.02 225.365 196.02 226.958Z" fill="#4B5057"/>
<path d="M97.0149 32.8625C97.0149 34.4556 95.7541 35.7169 94.1615 35.7169C92.5689 35.7169 91.3081 34.4556 91.3081 32.8625C91.3081 31.2694 92.5689 30.0082 94.1615 30.0082C95.6877 30.0082 97.0149 31.2694 97.0149 32.8625Z" fill="#4B5057"/>
<path d="M113.472 14.6079C113.472 15.4045 112.808 16.0683 112.012 16.0683C111.215 16.0683 110.552 15.4045 110.552 14.6079C110.552 13.8114 111.215 13.1476 112.012 13.1476C112.808 13.1476 113.472 13.8114 113.472 14.6079Z" fill="#7E7E7E"/>
<path d="M62.9734 117.365C63.7797 117.365 64.4333 116.711 64.4333 115.904C64.4333 115.098 63.7797 114.444 62.9734 114.444C62.1671 114.444 61.5135 115.098 61.5135 115.904C61.5135 116.711 62.1671 117.365 62.9734 117.365Z" fill="#7E7E7E"/>
<path d="M234.707 150.488L243.466 156.728L238.091 163.167L228.469 158.122L234.707 150.488Z" fill="#4B5057"/>
<path d="M67.2203 232.933H76.7758L77.1076 241.894H67.2203V232.933Z" fill="#7E7E7E"/>
<path d="M182.683 80.1252L187.261 83.4442L184.275 87.8253L179.564 84.3736L182.683 80.1252Z" fill="#7E7E7E"/>
<path d="M86.6631 169.871L91.2418 173.257L88.322 177.638L83.5443 174.186L86.6631 169.871Z" fill="#4B5057"/>
</svg>
