<svg width="86" height="24" viewBox="0 0 86 24" fill="none" xmlns="http://www.w3.org/2000/svg">
<path d="M44.0865 10H45.3593C44.9814 8.03125 43.3309 6.67898 41.1831 6.67898C38.573 6.67898 36.7286 8.6875 36.7286 11.9091C36.7286 15.1307 38.5581 17.1392 41.2627 17.1392C43.6888 17.1392 45.4189 15.5234 45.4189 13.0028V11.9091H41.5411V13.0028H44.2257C44.1909 14.8324 42.9878 15.9858 41.2627 15.9858C39.3735 15.9858 37.9218 14.554 37.9218 11.9091C37.9218 9.2642 39.3735 7.83239 41.1831 7.83239C42.6547 7.83239 43.654 8.66264 44.0865 10ZM50.8938 17.1591C52.962 17.1591 54.354 15.5881 54.354 13.2216C54.354 10.8352 52.962 9.2642 50.8938 9.2642C48.8256 9.2642 47.4336 10.8352 47.4336 13.2216C47.4336 15.5881 48.8256 17.1591 50.8938 17.1591ZM50.8938 16.1051C49.3228 16.1051 48.6069 14.7528 48.6069 13.2216C48.6069 11.6903 49.3228 10.3182 50.8938 10.3182C52.4648 10.3182 53.1807 11.6903 53.1807 13.2216C53.1807 14.7528 52.4648 16.1051 50.8938 16.1051ZM59.6673 17.1591C61.7355 17.1591 63.1275 15.5881 63.1275 13.2216C63.1275 10.8352 61.7355 9.2642 59.6673 9.2642C57.5991 9.2642 56.2071 10.8352 56.2071 13.2216C56.2071 15.5881 57.5991 17.1591 59.6673 17.1591ZM59.6673 16.1051C58.0963 16.1051 57.3804 14.7528 57.3804 13.2216C57.3804 11.6903 58.0963 10.3182 59.6673 10.3182C61.2383 10.3182 61.9542 11.6903 61.9542 13.2216C61.9542 14.7528 61.2383 16.1051 59.6673 16.1051ZM68.4209 20.0227C70.2505 20.0227 71.7221 19.1875 71.7221 17.2188V9.36364H70.5886V10.5767H70.4692C70.2107 10.179 69.7334 9.2642 68.242 9.2642C66.313 9.2642 64.9806 10.7955 64.9806 13.142C64.9806 15.5284 66.3726 16.8807 68.2221 16.8807C69.7136 16.8807 70.1908 16.0057 70.4493 15.5881H70.5488V17.1392C70.5488 18.4119 69.6539 18.9886 68.4209 18.9886C67.0339 18.9886 66.5466 18.2578 66.2334 17.8352L65.2988 18.4915C65.7761 19.2919 66.7157 20.0227 68.4209 20.0227ZM68.3812 15.8267C66.9096 15.8267 66.1539 14.7131 66.1539 13.1222C66.1539 11.571 66.8897 10.3182 68.3812 10.3182C69.813 10.3182 70.5687 11.4716 70.5687 13.1222C70.5687 14.8125 69.7931 15.8267 68.3812 15.8267ZM75.4631 6.81818H74.2898V17H75.4631V6.81818ZM81.2338 17.1591C82.7849 17.1591 83.9184 16.3835 84.2764 15.2301L83.1429 14.9119C82.8446 15.7074 82.1535 16.1051 81.2338 16.1051C79.8566 16.1051 78.9071 15.2152 78.8524 13.5795H84.3957V13.0824C84.3957 10.2386 82.7054 9.2642 81.1145 9.2642C79.0463 9.2642 77.6741 10.8949 77.6741 13.2415C77.6741 15.5881 79.0264 17.1591 81.2338 17.1591ZM78.8524 12.5653C78.9319 11.3771 79.7721 10.3182 81.1145 10.3182C82.3872 10.3182 83.2025 11.2727 83.2025 12.5653H78.8524Z" fill="white"/>
<path d="M23.2354 9.75583H22.3124V9.70828H12V14.2916H18.4756C17.5309 16.9596 14.9923 18.8749 12 18.8749C8.2033 18.8749 5.12504 15.7966 5.12504 11.9999C5.12504 8.20324 8.2033 5.12498 12 5.12498C13.7525 5.12498 15.3469 5.78612 16.5609 6.86606L19.8019 3.6251C17.7555 1.71788 15.0181 0.541687 12 0.541687C5.67217 0.541687 0.541748 5.67211 0.541748 11.9999C0.541748 18.3277 5.67217 23.4582 12 23.4582C18.3278 23.4582 23.4582 18.3277 23.4582 11.9999C23.4582 11.2317 23.3792 10.4817 23.2354 9.75583Z" fill="white"/>
<path d="M1.86261 6.66669L5.62721 9.42755C6.64585 6.90559 9.11281 5.12498 11.9997 5.12498C13.7522 5.12498 15.3467 5.78612 16.5607 6.86606L19.8016 3.6251C17.7552 1.71788 15.0178 0.541687 11.9997 0.541687C7.5986 0.541687 3.78186 3.02641 1.86261 6.66669Z" fill="white"/>
<path d="M11.9997 23.4584C14.9594 23.4584 17.6486 22.3258 19.6819 20.4839L16.1356 17.483C14.9465 18.3872 13.4935 18.8763 11.9997 18.8751C9.01942 18.8751 6.48887 16.9748 5.53554 14.3228L1.79901 17.2017C3.69535 20.9124 7.54646 23.4584 11.9997 23.4584Z" fill="white"/>
<path d="M23.2348 9.75605H22.3119V9.7085H11.9995V14.2918H18.4751C18.0232 15.5616 17.2091 16.6712 16.1336 17.4835L16.1353 17.4823L19.6816 20.4833C19.4307 20.7113 23.4577 17.7293 23.4577 12.0001C23.4577 11.2319 23.3786 10.4819 23.2348 9.75605Z" fill="white"/>
</svg>
