<svg width="113" height="92" viewBox="0 0 113 92" fill="none" xmlns="http://www.w3.org/2000/svg">
<rect width="23.9377" height="23.8344" transform="matrix(0.876983 -0.480521 -0.876983 -0.480521 20.9024 56.9429)" fill="#FE9879"/>
<rect width="23.9377" height="23.0051" transform="matrix(0.876983 -0.480521 -1.1299e-07 -1 20.9137 56.949)" fill="#D76B4A"/>
<rect width="23.9377" height="22.9059" transform="matrix(0.876983 -0.480521 2.32136e-08 1 20.555 11.5148)" fill="#3ABCD4"/>
<rect width="23.9377" height="23.9377" transform="matrix(0.876983 -0.480521 0.876983 0.480521 20.555 11.5026)" fill="#21899C"/>
<path d="M0.860471 88V76.6307H3.60843V85.7683H8.33824V88H0.860471ZM21.9249 82.3153C21.9249 83.5663 21.6843 84.6266 21.2032 85.4963C20.7221 86.366 20.0707 87.0267 19.2491 87.4782C18.4312 87.9297 17.5134 88.1554 16.4956 88.1554C15.4742 88.1554 14.5545 87.9278 13.7366 87.4726C12.9186 87.0174 12.2691 86.3568 11.788 85.4908C11.3106 84.621 11.0719 83.5626 11.0719 82.3153C11.0719 81.0644 11.3106 80.0041 11.788 79.1344C12.2691 78.2647 12.9186 77.604 13.7366 77.1525C14.5545 76.701 15.4742 76.4752 16.4956 76.4752C17.5134 76.4752 18.4312 76.701 19.2491 77.1525C20.0707 77.604 20.7221 78.2647 21.2032 79.1344C21.6843 80.0041 21.9249 81.0644 21.9249 82.3153ZM19.1159 82.3153C19.1159 81.5752 19.0104 80.9497 18.7995 80.439C18.5922 79.9282 18.2924 79.5415 17.9001 79.2787C17.5115 79.0159 17.0434 78.8846 16.4956 78.8846C15.9516 78.8846 15.4834 79.0159 15.0911 79.2787C14.6988 79.5415 14.3972 79.9282 14.1862 80.439C13.979 80.9497 13.8753 81.5752 13.8753 82.3153C13.8753 83.0555 13.979 83.681 14.1862 84.1917C14.3972 84.7025 14.6988 85.0892 15.0911 85.352C15.4834 85.6147 15.9516 85.7461 16.4956 85.7461C17.0434 85.7461 17.5115 85.6147 17.9001 85.352C18.2924 85.0892 18.5922 84.7025 18.7995 84.1917C19.0104 83.681 19.1159 83.0555 19.1159 82.3153ZM32.8663 80.3446C32.8034 80.1114 32.7109 79.906 32.5888 79.7284C32.4666 79.547 32.3167 79.3934 32.1391 79.2676C31.9614 79.1418 31.7579 79.0474 31.5284 78.9845C31.299 78.9179 31.0473 78.8846 30.7734 78.8846C30.222 78.8846 29.7446 79.0178 29.3412 79.2843C28.9415 79.5507 28.6324 79.9393 28.4141 80.4501C28.1957 80.9571 28.0865 81.5733 28.0865 82.2987C28.0865 83.0278 28.192 83.6495 28.403 84.164C28.6139 84.6784 28.9193 85.0707 29.319 85.3409C29.7187 85.611 30.2035 85.7461 30.7734 85.7461C31.2768 85.7461 31.7024 85.6647 32.0503 85.5019C32.4019 85.3353 32.6683 85.1003 32.8497 84.7968C33.031 84.4933 33.1217 84.1362 33.1217 83.7254L33.6324 83.7865H30.8678V81.7824H35.7697V83.2868C35.7697 84.3046 35.5532 85.1762 35.1202 85.9016C34.6909 86.6269 34.0987 87.1839 33.3437 87.5725C32.5925 87.9611 31.7283 88.1554 30.7512 88.1554C29.6669 88.1554 28.7139 87.9204 27.8922 87.4504C27.0706 86.9804 26.4304 86.3105 25.9715 85.4408C25.5125 84.5674 25.2831 83.5311 25.2831 82.332C25.2831 81.3994 25.4219 80.5722 25.6994 79.8505C25.977 79.1251 26.3638 78.5108 26.8597 78.0074C27.3593 77.5041 27.9367 77.1229 28.5917 76.8638C29.2505 76.6048 29.9592 76.4752 30.7179 76.4752C31.3767 76.4752 31.9892 76.5696 32.5554 76.7584C33.1254 76.9471 33.6287 77.2136 34.0654 77.5578C34.5058 77.902 34.863 78.3109 35.1369 78.7846C35.4107 79.2584 35.581 79.7783 35.6476 80.3446H32.8663ZM42.0132 76.6307V88H39.2653V76.6307H42.0132ZM55.2904 76.6307V88H52.9588L48.4344 81.4382H48.3622V88H45.6143V76.6307H47.9792L52.4536 83.1814H52.548V76.6307H55.2904Z" fill="#21899C"/>
<path d="M58.8942 88V76.6307H63.5907C64.442 76.6307 65.1766 76.7972 65.7947 77.1303C66.4164 77.4597 66.8957 77.9205 67.2325 78.5126C67.5693 79.1011 67.7377 79.7857 67.7377 80.5666C67.7377 81.3512 67.5656 82.0378 67.2214 82.6262C66.8809 83.211 66.3942 83.6643 65.7614 83.9863C65.1285 84.3083 64.3772 84.4693 63.5075 84.4693H60.6096V82.3042H62.9967C63.4112 82.3042 63.7573 82.2321 64.0349 82.0877C64.3161 81.9434 64.5289 81.7417 64.6733 81.4826C64.8176 81.2199 64.8898 80.9145 64.8898 80.5666C64.8898 80.2151 64.8176 79.9116 64.6733 79.6562C64.5289 79.3971 64.3161 79.1973 64.0349 79.0567C63.7536 78.916 63.4075 78.8457 62.9967 78.8457H61.6422V88H58.8942ZM72.0534 88H69.1001L72.9361 76.6307H76.5945L80.4305 88H77.4772L74.807 79.4952H74.7181L72.0534 88ZM71.6593 83.5256H77.8325V85.6129H71.6593V83.5256ZM90.4574 80.3446C90.3945 80.1114 90.3019 79.906 90.1798 79.7284C90.0577 79.547 89.9078 79.3934 89.7301 79.2676C89.5525 79.1418 89.3489 79.0474 89.1195 78.9845C88.89 78.9179 88.6384 78.8846 88.3645 78.8846C87.813 78.8846 87.3356 79.0178 86.9322 79.2843C86.5325 79.5507 86.2235 79.9393 86.0051 80.4501C85.7868 80.9571 85.6776 81.5733 85.6776 82.2987C85.6776 83.0278 85.7831 83.6495 85.994 84.164C86.205 84.6784 86.5103 85.0707 86.91 85.3409C87.3097 85.611 87.7945 85.7461 88.3645 85.7461C88.8678 85.7461 89.2934 85.6647 89.6413 85.5019C89.9929 85.3353 90.2594 85.1003 90.4407 84.7968C90.6221 84.4933 90.7127 84.1362 90.7127 83.7254L91.2235 83.7865H88.4589V81.7824H93.3608V83.2868C93.3608 84.3046 93.1443 85.1762 92.7112 85.9016C92.2819 86.6269 91.6898 87.1839 90.9348 87.5725C90.1835 87.9611 89.3193 88.1554 88.3423 88.1554C87.2579 88.1554 86.3049 87.9204 85.4833 87.4504C84.6617 86.9804 84.0214 86.3105 83.5625 85.4408C83.1036 84.5674 82.8741 83.5311 82.8741 82.332C82.8741 81.3994 83.0129 80.5722 83.2905 79.8505C83.568 79.1251 83.9548 78.5108 84.4507 78.0074C84.9504 77.5041 85.5277 77.1229 86.1828 76.8638C86.8415 76.6048 87.5503 76.4752 88.309 76.4752C88.9677 76.4752 89.5802 76.5696 90.1465 76.7584C90.7164 76.9471 91.2198 77.2136 91.6565 77.5578C92.0969 77.902 92.454 78.3109 92.7279 78.7846C93.0018 79.2584 93.172 79.7783 93.2386 80.3446H90.4574ZM96.8563 88V76.6307H104.784V78.8624H99.6043V81.194H104.379V83.4312H99.6043V85.7683H104.784V88H96.8563Z" fill="#FE9879"/>
</svg>
